<svg id="ace_x5F_hand" enable-background="new 0 0 300 300" height="512" viewBox="0 0 300 300" width="512" xmlns="http://www.w3.org/2000/svg"><circle cx="122" cy="120" fill="#efefd2" r="92"/><path d="m207.26 268h-110.52c-8.09 0-14.649-6.558-14.649-14.649v-174.702c0-8.091 6.559-14.649 14.649-14.649h110.52c8.09 0 14.649 6.558 14.649 14.649v174.703c0 8.09-6.559 14.648-14.649 14.648z" fill="#fff"/><g fill="#4c241d"><path d="m207.262 272h-110.524c-10.281 0-18.648-8.365-18.648-18.648v-174.704c0-10.283 8.367-18.648 18.648-18.648h110.523c10.281 0 18.648 8.365 18.648 18.648v174.703c.001 10.284-8.366 18.649-18.647 18.649zm-110.524-204c-5.871 0-10.648 4.777-10.648 10.648v174.703c0 5.871 4.777 10.648 10.648 10.648h110.523c5.871 0 10.648-4.777 10.648-10.648v-174.703c0-5.871-4.777-10.648-10.648-10.648z"/><path d="m48 72c-7.719 0-14-6.281-14-14s6.281-14 14-14 14 6.281 14 14-6.281 14-14 14zm0-20c-3.309 0-6 2.691-6 6s2.691 6 6 6 6-2.691 6-6-2.691-6-6-6z"/><path d="m256 260c-7.719 0-14-6.281-14-14s6.281-14 14-14 14 6.281 14 14-6.281 14-14 14zm0-20c-3.309 0-6 2.691-6 6s2.691 6 6 6 6-2.691 6-6-2.691-6-6-6z"/><circle cx="252" cy="134" r="4.529"/><circle cx="204" cy="250" r="4.529"/><circle cx="52" cy="266" r="4.529"/><path d="m246.652 53.348c-1.023 0-2.047-.391-2.828-1.172-1.562-1.562-1.562-4.094 0-5.656l14.695-14.695c1.562-1.562 4.094-1.562 5.656 0s1.562 4.094 0 5.656l-14.695 14.695c-.781.781-1.804 1.172-2.828 1.172z"/><path d="m261.348 53.348c-1.023 0-2.047-.391-2.828-1.172l-14.696-14.696c-1.562-1.562-1.562-4.094 0-5.656s4.094-1.562 5.656 0l14.695 14.695c1.562 1.562 1.562 4.094 0 5.656-.78.782-1.804 1.173-2.827 1.173z"/><path d="m34.652 221.348c-1.023 0-2.047-.391-2.828-1.172-1.562-1.562-1.562-4.094 0-5.656l14.695-14.695c1.562-1.562 4.094-1.562 5.656 0s1.562 4.094 0 5.656l-14.695 14.695c-.781.781-1.804 1.172-2.828 1.172z"/><path d="m49.348 221.348c-1.023 0-2.047-.391-2.828-1.172l-14.696-14.696c-1.562-1.562-1.562-4.094 0-5.656s4.094-1.562 5.656 0l14.695 14.695c1.562 1.562 1.562 4.094 0 5.656-.78.782-1.804 1.173-2.827 1.173z"/><path d="m149.41 208.838c-2.211 0-4-1.791-4-4v-25.893c0-2.209 1.789-4 4-4s4 1.791 4 4v25.893c0 2.209-1.789 4-4 4z"/></g><path d="m148.929 130.835s-30.589 32.367-30.589 41.096c0 8.73 7.608 15.806 16.994 15.806 5.585 0 10.497-2.54 13.595-6.409 3.098 3.869 8.01 6.409 13.595 6.409 9.385 0 16.994-7.076 16.994-15.806 0-8.729-30.589-41.096-30.589-41.096z" fill="#6b4f5b"/><path d="m162.523 191.736c-5.066 0-9.832-1.697-13.594-4.76-3.762 3.062-8.527 4.76-13.594 4.76-11.578 0-20.996-8.885-20.996-19.805 0-9.578 24.25-35.98 31.684-43.846 1.508-1.598 4.305-1.598 5.812 0 7.434 7.865 31.684 34.268 31.684 43.846.001 10.921-9.417 19.805-20.996 19.805zm-13.593-14.408c1.215 0 2.363.553 3.121 1.5 2.5 3.119 6.316 4.908 10.473 4.908 7.168 0 12.996-5.295 12.996-11.805-.105-4.086-13.336-20.848-26.59-35.234-13.254 14.387-26.484 31.148-26.59 35.238 0 6.506 5.828 11.801 12.996 11.801 4.156 0 7.973-1.789 10.473-4.908.757-.947 1.906-1.5 3.121-1.5z" fill="#4c241d"/><path d="m126 112.002c-1.551 0-3.027-.91-3.676-2.426l-8.324-19.422-8.324 19.422c-.867 2.031-3.238 2.969-5.25 2.1-2.031-.869-2.973-3.221-2.102-5.252l12-28c.629-1.471 2.074-2.424 3.676-2.424s3.047.953 3.676 2.424l12 28c.871 2.031-.07 4.383-2.102 5.252-.512.22-1.047.326-1.574.326z" fill="#4c241d"/><path d="m122 103.809h-16c-2.211 0-4-1.791-4-4s1.789-4 4-4h16c2.211 0 4 1.791 4 4s-1.789 4-4 4z" fill="#4c241d"/></svg>